<?xml version="1.0"?>
<svg xmlns="http://www.w3.org/2000/svg" viewBox="0 0 64 64" width="512" height="512"><g id="time"><path d="M49.4,38.12A5.829,5.829,0,0,1,49,36a5.971,5.971,0,0,1,1.53-4H10a4,4,0,0,0-4,4,3.978,3.978,0,0,0,4,4H44.38A11.977,11.977,0,0,1,49.4,38.12ZM45,35h2v2H45Zm-2,2H8V35H43Z"/><path d="M40.11,45a11.8,11.8,0,0,1,1.97-3H16a4,4,0,0,0-4,4,3.978,3.978,0,0,0,4,4H39a12.331,12.331,0,0,1,.39-3H18V45ZM16,47H14V45h2Z"/><path d="M41.27,57H6V55H40.11a11.758,11.758,0,0,1-.93-3H8a4,4,0,0,0-4,4,3.978,3.978,0,0,0,4,4H44.38A11.989,11.989,0,0,1,41.27,57Z"/><path d="M13.68,30A18.616,18.616,0,0,1,13,25a19,19,0,0,1,38,0,18.616,18.616,0,0,1-.68,5h2.06A20.813,20.813,0,0,0,53,25a21,21,0,1,0-41.39,5Z"/><path d="M32,8A17.024,17.024,0,0,0,15,25a16.843,16.843,0,0,0,.77,5H48.23A16.843,16.843,0,0,0,49,25,17.024,17.024,0,0,0,32,8ZM19,28H17V26h2Zm4,0H21V26h2Zm4,0H25V26h2Zm15-2H32a1,1,0,0,1-1-1V11h2V24h9Z"/><path d="M51,40A10.016,10.016,0,0,0,41,50a9.914,9.914,0,0,0,2.42,6.5,7.985,7.985,0,0,1,4.28-4.77,5,5,0,1,1,6.6,0,7.985,7.985,0,0,1,4.28,4.77A9.914,9.914,0,0,0,61,50,10.016,10.016,0,0,0,51,40Z"/><path d="M51,53a6,6,0,0,0-5.91,5.05,9.931,9.931,0,0,0,11.82,0A6,6,0,0,0,51,53Z"/><circle cx="51" cy="48" r="3"/></g></svg>
